<svg aria-hidden="true" style="position: absolute; width: 0; height: 0; overflow: hidden;" version="1.1" xmlns="http://www.w3.org/2000/svg" xmlns:xlink="http://www.w3.org/1999/xlink">
<defs>
<symbol id="icon-envelope" viewBox="0 0 43 32">
<path fill="#757575" style="fill: var(--color1, #757575)" d="M38.667 0h-34.667c-2.206 0-4 1.794-4 4v24c0 2.206 1.794 4 4 4h34.667c2.206 0 4-1.794 4-4v-24c0-2.206-1.794-4-4-4zM38.667 2.667c0.181 0 0.353 0.038 0.511 0.103l-17.844 15.466-17.844-15.466c0.158-0.066 0.33-0.103 0.511-0.103h34.667zM38.667 29.333h-34.667c-0.736 0-1.333-0.598-1.333-1.333v-22.413l17.793 15.421c0.251 0.217 0.563 0.326 0.874 0.326s0.622-0.108 0.874-0.326l17.793-15.421v22.413c0 0.736-0.598 1.333-1.333 1.333z"></path>
</symbol>
<symbol id="icon-facebook" viewBox="0 0 32 32">
<path fill="#fff" style="fill: var(--color2, #fff)" d="M21.329 5.313h2.921v-5.088c-0.504-0.069-2.237-0.225-4.256-0.225-4.212 0-7.097 2.649-7.097 7.519v4.481h-4.648v5.688h4.648v14.312h5.699v-14.311h4.46l0.708-5.688h-5.169v-3.919c0.001-1.644 0.444-2.769 2.735-2.769z"></path>
</symbol>
<symbol id="icon-hands" viewBox="0 0 37 32">
<path fill="#ec3c05" style="fill: var(--color3, #ec3c05)" d="M35.368 8.345c-1.997 1.181-3.072 1.663-5.142 1.554-0.779-0.009-1.191-0.346-1.962-0.273-0.717 0.027-1.084 0.3-1.801 0.545-1.102 0.346-1.702 0.655-2.858 1.018-0.734 0.209-1.2 0.218-1.962 0.482-0.654 0.282-0.34 0.055-0.797 0.59-0.591 0.664-0.448 1.182-1.003 2.317-0.689 1.491-0.61 1.69-0.215 1.872-0.26 0.763-0.322 1.273-0.26 2.099 0.071 0.627-0.188 1.063 0.475 1.563 0.905 0.682 2.804 2.281 3.288 2.308 0.725-0.027 2.84 0.055 3.915-0.699 0.242-0.154 0.314-0.309 0.107 0.273-0.044 0.072-2.678 2.154-2.965 2.144-2.029 0.066-2.418 0.162-2.456 0.209-0.233-0.092-1.787-1.973-2.74-1.282-0.368 0.228-0.538 0.446-0.682 0.855 0.126 0.263 0.717 0.682 1.263 1.027 0.788 0.509 0.86 1.044 1.648 1.236 0.958 0.217 1.98 0.072 2.588 0.154 0.234 0.064 2.347-0.563 3.664-1.281 1.218-0.636-1.675 1.227-2.383 2.145-2.132 0.682-1.531 0.709-2.544 0.918-0.94 0.218-0.896 0.164-1.541 0.372-0.663 0.164-1.209 1.081-0.582 1.563 0.376 0.318 1.55-0.127 2.705-0.164 0.511-0.008 2.598-0.981 3.072-1.236 1.183-0.645 2.051-1.536 2.75-2.045 0.967-0.681-1.093 1.882-1.962 2.954-0.251 0.346-0.367 0.418-0.68 0.863-0.519 0.682 0.143 1.718 0.474 1.554 0.385-0.145 0.636-0.927 1.057-1.181 0.215-0.118 0.788-0.973 1.326-1.554 0.394-0.454 0.681-0.654 1.057-1.127 0.636-0.8 0.77-1.409 1.326-2.263 0.34-0.446 0.582-0.581 0.895-1.127 1.658-3.181 1.174-4.608 2.76-6.88 0.484-0.673 1.030-0.837 1.801-1.236 0.716-5.299-1.657-8.261-1.639-8.27zM27.682 16.779c-0.377 1.336-0.34 1.49-1.057 1.99-0.869 0.673-0.914 0.164-2.911 1.291 0 0-0.825-0.872-2.123-1.291 0.009 0.018-0.349-1.69-1.057-2.263 1.684-1.3 1.639-2.399 1.908-2.363 0.6 0.055 1.559 0.364 3.333-0.318 1.022 1.972 2.258 1.872 1.908 2.954z"></path>
<path fill="#000" style="fill: var(--color4, #000)" d="M17.569 7.108c-0.788-0.536-0.869-1.072-1.648-1.245-0.958-0.236-1.989-0.091-2.589-0.209-0.233-0.027-2.347 0.6-3.655 1.291-1.236 0.664 1.666-1.2 2.383-2.154 2.123-0.645 1.514-0.673 2.544-0.909 0.932-0.191 0.887-0.136 1.532-0.327 0.654-0.182 1.209-1.091 0.582-1.609-0.385-0.291-1.55 0.155-2.697 0.164-0.519 0.037-2.607 1.010-3.082 1.282-1.183 0.627-2.051 1.518-2.75 1.99-0.976 0.718 1.093-1.836 1.962-2.899 0.251-0.364 0.367-0.436 0.689-0.863 0.502-0.7-0.152-1.736-0.474-1.609-0.394 0.182-0.645 0.963-1.12 1.236-0.17 0.1-0.744 0.954-1.272 1.554-0.394 0.436-0.681 0.636-1.058 1.136-0.645 0.772-0.77 1.381-1.326 2.199-0.34 0.491-0.591 0.618-0.896 1.181-1.657 3.163-1.182 4.59-2.759 6.825-0.484 0.718-1.030 0.872-1.801 1.291-0.717 5.289 1.648 8.243 1.639 8.225 1.998-1.154 3.064-1.636 5.142-1.563 0.78 0.045 1.192 0.381 1.962 0.326 0.717-0.045 1.084-0.318 1.801-0.536 1.102-0.372 1.702-0.682 2.804-1.028 0.789-0.228 1.254-0.236 2.016-0.536 0.654-0.246 0.34-0.018 0.797-0.537 0.582-0.682 0.448-1.2 0.95-2.309 0.744-1.517 0.663-1.717 0.268-1.881 0.251-0.782 0.323-1.281 0.26-2.099-0.081-0.636 0.188-1.082-0.474-1.554-0.905-0.709-2.804-2.308-3.279-2.317-0.735 0.009-2.849-0.073-3.924 0.645-0.241 0.191-0.313 0.346-0.107-0.209 0.045-0.1 2.679-2.181 2.965-2.208 1.879-0.041 2.352-0.119 2.441-0.162 0.186 0.005 1.784 1.976 2.755 1.289 0.358-0.245 0.538-0.463 0.69-0.854-0.134-0.282-0.726-0.7-1.273-1.018zM10.518 13.234c0.86-0.645 0.913-0.136 2.911-1.236 0-0.027 0.824 0.845 2.123 1.236-0.009 0.009 0.349 1.717 1.057 2.308-1.684 1.282-1.639 2.381-1.908 2.363-0.601-0.073-1.559-0.382-3.332 0.273-1.030-1.945-2.258-1.836-1.908-2.963 0.376-1.291 0.332-1.454 1.058-1.981z"></path>
</symbol>
<symbol id="icon-instagram" viewBox="0 0 32 32">
<path fill="#fff" style="fill: var(--color2, #fff)" d="M31.969 9.408c-0.075-1.7-0.35-2.869-0.744-3.882-0.406-1.075-1.032-2.038-1.851-2.838-0.8-0.813-1.769-1.444-2.832-1.844-1.019-0.394-2.182-0.669-3.882-0.744-1.713-0.081-2.257-0.1-6.601-0.1s-4.888 0.019-6.595 0.094c-1.7 0.075-2.869 0.35-3.882 0.744-1.075 0.406-2.038 1.031-2.838 1.85-0.813 0.8-1.444 1.769-1.844 2.832-0.394 1.019-0.669 2.182-0.744 3.882-0.081 1.713-0.1 2.257-0.1 6.601s0.019 4.888 0.094 6.595c0.075 1.7 0.35 2.869 0.744 3.882 0.406 1.075 1.038 2.038 1.85 2.838 0.8 0.813 1.769 1.444 2.832 1.844 1.019 0.394 2.182 0.669 3.882 0.744 1.706 0.075 2.25 0.094 6.595 0.094s4.888-0.019 6.595-0.094c1.7-0.075 2.869-0.35 3.882-0.744 2.151-0.832 3.851-2.532 4.682-4.682 0.394-1.019 0.669-2.182 0.744-3.882 0.075-1.707 0.094-2.251 0.094-6.595s-0.006-4.888-0.081-6.595zM29.087 22.473c-0.069 1.563-0.331 2.407-0.55 2.969-0.538 1.394-1.644 2.5-3.038 3.038-0.563 0.219-1.413 0.481-2.969 0.55-1.688 0.075-2.194 0.094-6.464 0.094s-4.782-0.019-6.464-0.094c-1.563-0.069-2.407-0.331-2.969-0.55-0.694-0.256-1.325-0.663-1.838-1.194-0.531-0.519-0.938-1.144-1.194-1.838-0.219-0.563-0.481-1.413-0.55-2.969-0.075-1.688-0.094-2.194-0.094-6.464s0.019-4.782 0.094-6.464c0.069-1.563 0.331-2.407 0.55-2.969 0.256-0.694 0.663-1.325 1.2-1.838 0.519-0.531 1.144-0.938 1.838-1.194 0.563-0.219 1.413-0.481 2.969-0.55 1.688-0.075 2.194-0.094 6.464-0.094 4.276 0 4.782 0.019 6.464 0.094 1.563 0.069 2.407 0.331 2.969 0.55 0.694 0.256 1.325 0.662 1.838 1.194 0.531 0.519 0.938 1.144 1.194 1.838 0.219 0.563 0.481 1.413 0.55 2.969 0.075 1.688 0.094 2.194 0.094 6.464s-0.019 4.77-0.094 6.458z"></path>
<path fill="#fff" style="fill: var(--color2, #fff)" d="M16.059 7.783c-4.538 0-8.22 3.682-8.22 8.22s3.682 8.22 8.22 8.22c4.539 0 8.22-3.682 8.22-8.22s-3.682-8.22-8.22-8.22zM16.059 21.335c-2.944 0-5.332-2.388-5.332-5.332s2.388-5.332 5.332-5.332c2.944 0 5.332 2.388 5.332 5.332s-2.388 5.332-5.332 5.332z"></path>
<path fill="#fff" style="fill: var(--color2, #fff)" d="M26.524 7.458c0 1.060-0.859 1.919-1.919 1.919s-1.919-0.859-1.919-1.919c0-1.060 0.859-1.919 1.919-1.919s1.919 0.859 1.919 1.919z"></path>
</symbol>
<symbol id="icon-linkedin" viewBox="0 0 32 32">
<path fill="#fff" style="fill: var(--color2, #fff)" d="M31.992 32v-0.001h0.008v-11.736c0-5.741-1.236-10.164-7.948-10.164-3.227 0-5.392 1.771-6.276 3.449h-0.093v-2.913h-6.364v21.364h6.627v-10.579c0-2.785 0.528-5.479 3.977-5.479 3.399 0 3.449 3.179 3.449 5.657v10.401h6.62z"></path>
<path fill="#fff" style="fill: var(--color2, #fff)" d="M0.528 10.636h6.635v21.364h-6.635v-21.364z"></path>
<path fill="#fff" style="fill: var(--color2, #fff)" d="M3.843 0c-2.121 0-3.843 1.721-3.843 3.843s1.721 3.879 3.843 3.879c2.121 0 3.843-1.757 3.843-3.879-0.001-2.121-1.723-3.843-3.843-3.843v0z"></path>
</symbol>
<symbol id="icon-logo" viewBox="0 0 168 32">
<path fill="#ec3c05" style="fill: var(--color3, #ec3c05)" d="M40.74 23.73h5.376c1.792 0 2.688-0.928 2.688-2.784v-10.912c0-1.856-0.896-2.784-2.688-2.784h-5.376c-0.213 0-0.32 0.096-0.32 0.288v15.904c0 0.192 0.107 0.288 0.32 0.288zM38.084 25.33v-19.68c0-0.299 0.149-0.448 0.448-0.448h7.872c1.472 0 2.624 0.427 3.456 1.28 0.853 0.832 1.28 1.984 1.28 3.456v11.104c0 1.472-0.427 2.635-1.28 3.488-0.832 0.832-1.984 1.248-3.456 1.248h-7.872c-0.299 0-0.448-0.149-0.448-0.448zM63.673 25.778h-2.752c-1.472 0-2.635-0.416-3.488-1.248-0.832-0.832-1.248-1.995-1.248-3.488v-6.848c0-1.493 0.416-2.656 1.248-3.488 0.853-0.832 2.016-1.248 3.488-1.248h2.752c1.472 0 2.624 0.416 3.456 1.248 0.853 0.832 1.28 1.995 1.28 3.488v6.848c0 1.493-0.427 2.656-1.28 3.488-0.832 0.832-1.984 1.248-3.456 1.248zM61.177 23.73h2.24c1.792 0 2.688-0.917 2.688-2.752v-6.72c0-1.835-0.896-2.752-2.688-2.752h-2.24c-1.792 0-2.688 0.917-2.688 2.752v6.72c0 1.835 0.896 2.752 2.688 2.752zM75.513 25.778h-1.44c-0.299 0-0.448-0.149-0.448-0.448v-21.6c0-0.299 0.149-0.448 0.448-0.448h1.44c0.299 0 0.448 0.149 0.448 0.448v21.6c0 0.299-0.149 0.448-0.448 0.448z"></path>
<path fill="#000" style="fill: var(--color4, #000)" d="M89.679 25.778h-3.456c-1.472 0-2.635-0.416-3.488-1.248-0.832-0.832-1.248-1.995-1.248-3.488v-11.104c0-1.493 0.416-2.656 1.248-3.488 0.853-0.832 2.016-1.248 3.488-1.248h3.456c1.472 0 2.624 0.427 3.456 1.28 0.832 0.832 1.248 1.984 1.248 3.456v1.312c0 0.32-0.149 0.48-0.448 0.48h-1.44c-0.299 0-0.448-0.16-0.448-0.48v-1.216c0-1.856-0.885-2.784-2.656-2.784h-2.912c-1.771 0-2.656 0.928-2.656 2.784v10.912c0 1.856 0.885 2.784 2.656 2.784h2.912c1.771 0 2.656-0.928 2.656-2.784v-3.584c0-0.213-0.096-0.32-0.288-0.32h-3.168c-0.299 0-0.448-0.139-0.448-0.416v-1.184c0-0.299 0.149-0.448 0.448-0.448h5.152c0.427 0 0.64 0.224 0.64 0.672v5.376c0 1.493-0.416 2.656-1.248 3.488s-1.984 1.248-3.456 1.248zM106 25.778h-1.792c-1.451 0-2.581-0.416-3.392-1.248s-1.216-1.995-1.216-3.488v-11.136c0-0.299 0.149-0.448 0.448-0.448h1.44c0.299 0 0.448 0.149 0.448 0.448v11.040c0 1.856 0.885 2.784 2.656 2.784h1.824c0.96 0 1.696-0.256 2.208-0.768s0.768-1.237 0.768-2.176v-10.88c0-0.299 0.149-0.448 0.448-0.448h1.44c0.299 0 0.448 0.149 0.448 0.448v15.424c0 0.299-0.149 0.448-0.448 0.448h-1.44c-0.299 0-0.448-0.149-0.448-0.448v-1.248h-0.128c-0.533 1.131-1.621 1.696-3.264 1.696zM119.143 25.778h-1.44c-0.299 0-0.448-0.149-0.448-0.448v-21.6c0-0.299 0.149-0.448 0.448-0.448h1.44c0.299 0 0.448 0.149 0.448 0.448v21.6c0 0.299-0.149 0.448-0.448 0.448zM131.293 25.778h-1.888c-1.451 0-2.581-0.416-3.392-1.248s-1.216-1.995-1.216-3.488v-6.848c0-1.493 0.405-2.656 1.216-3.488s1.941-1.248 3.392-1.248h1.888c1.664 0 2.763 0.565 3.296 1.696h0.128v-7.424c0-0.299 0.139-0.448 0.416-0.448h1.472c0.277 0 0.416 0.149 0.416 0.448v21.6c0 0.299-0.139 0.448-0.416 0.448h-1.472c-0.277 0-0.416-0.149-0.416-0.448v-1.248h-0.128c-0.533 1.131-1.632 1.696-3.296 1.696zM134.717 20.786v-6.336c0-0.939-0.256-1.664-0.768-2.176s-1.248-0.768-2.208-0.768h-1.952c-1.771 0-2.656 0.928-2.656 2.784v6.656c0 1.856 0.885 2.784 2.656 2.784h1.952c0.96 0 1.696-0.256 2.208-0.768s0.768-1.237 0.768-2.176zM148.63 25.778h-1.792c-1.451 0-2.581-0.416-3.392-1.248s-1.216-1.995-1.216-3.488v-11.136c0-0.299 0.149-0.448 0.448-0.448h1.44c0.299 0 0.448 0.149 0.448 0.448v11.040c0 1.856 0.885 2.784 2.656 2.784h1.824c0.96 0 1.696-0.256 2.208-0.768s0.768-1.237 0.768-2.176v-10.88c0-0.299 0.149-0.448 0.448-0.448h1.44c0.299 0 0.448 0.149 0.448 0.448v15.424c0 0.299-0.149 0.448-0.448 0.448h-1.44c-0.299 0-0.448-0.149-0.448-0.448v-1.248h-0.128c-0.533 1.131-1.621 1.696-3.264 1.696zM161.612 25.778h-1.44c-0.299 0-0.448-0.149-0.448-0.448v-15.424c0-0.299 0.149-0.448 0.448-0.448h1.44c0.299 0 0.448 0.149 0.448 0.448v1.28h0.128c0.213-0.469 0.619-0.875 1.216-1.216s1.301-0.512 2.112-0.512h1.248c0.277 0 0.416 0.149 0.416 0.448v1.184c0 0.149-0.032 0.267-0.096 0.352-0.064 0.064-0.171 0.085-0.32 0.064h-1.728c-0.96 0-1.696 0.288-2.208 0.864s-0.768 1.365-0.768 2.368v10.592c0 0.299-0.149 0.448-0.448 0.448z"></path>
<path fill="#000" style="fill: var(--color4, #000)" d="M0.889 16l5.802-5.802 5.802 5.802-5.802 5.802-5.802-5.802z"></path>
<path fill="#000" style="fill: var(--color4, #000)" d="M7.658 22.769l5.802-5.802 5.802 5.802-5.802 5.802-5.802-5.802z"></path>
<path fill="#000" style="fill: var(--color4, #000)" d="M14.427 16l5.802-5.802 5.802 5.802-5.802 5.802-5.802-5.802z"></path>
<path fill="#000" style="fill: var(--color4, #000)" d="M7.658 9.231l5.802-5.802 5.802 5.802-5.802 5.802-5.802-5.802z"></path>
</symbol>
<symbol id="icon-logofooter" viewBox="0 0 179 32">
<path fill="#ec3c05" style="fill: var(--color3, #ec3c05)" d="M56.177 22.354h5.161c1.72 0 2.58-0.891 2.58-2.673v-10.476c0-1.782-0.86-2.673-2.58-2.673h-5.161c-0.205 0-0.307 0.092-0.307 0.276v15.268c0 0.184 0.102 0.276 0.307 0.276zM53.627 23.89v-18.893c0-0.287 0.143-0.43 0.43-0.43h7.557c1.413 0 2.519 0.41 3.318 1.229 0.819 0.799 1.229 1.905 1.229 3.318v10.66c0 1.413-0.41 2.529-1.229 3.348-0.799 0.799-1.905 1.198-3.318 1.198h-7.557c-0.287 0-0.43-0.143-0.43-0.43zM78.192 24.32h-2.642c-1.413 0-2.529-0.399-3.348-1.198-0.799-0.799-1.198-1.915-1.198-3.348v-6.574c0-1.434 0.399-2.55 1.198-3.348 0.819-0.799 1.935-1.198 3.348-1.198h2.642c1.413 0 2.519 0.399 3.318 1.198 0.819 0.799 1.229 1.915 1.229 3.348v6.574c0 1.434-0.41 2.55-1.229 3.348-0.799 0.799-1.905 1.198-3.318 1.198zM75.796 22.354h2.15c1.72 0 2.58-0.881 2.58-2.642v-6.451c0-1.761-0.86-2.642-2.58-2.642h-2.15c-1.72 0-2.58 0.881-2.58 2.642v6.451c0 1.761 0.86 2.642 2.58 2.642zM89.559 24.32h-1.382c-0.287 0-0.43-0.143-0.43-0.43v-20.736c0-0.287 0.143-0.43 0.43-0.43h1.382c0.287 0 0.43 0.143 0.43 0.43v20.736c0 0.287-0.143 0.43-0.43 0.43z"></path>
<path fill="#fff" style="fill: var(--color2, #fff)" d="M103.159 24.32h-3.318c-1.413 0-2.529-0.399-3.348-1.198-0.799-0.799-1.198-1.915-1.198-3.348v-10.66c0-1.434 0.399-2.55 1.198-3.348 0.819-0.799 1.935-1.198 3.348-1.198h3.318c1.413 0 2.519 0.41 3.318 1.229 0.799 0.799 1.198 1.905 1.198 3.318v1.26c0 0.307-0.143 0.461-0.43 0.461h-1.382c-0.287 0-0.43-0.154-0.43-0.461v-1.167c0-1.782-0.85-2.673-2.55-2.673h-2.796c-1.7 0-2.55 0.891-2.55 2.673v10.476c0 1.782 0.85 2.673 2.55 2.673h2.796c1.7 0 2.55-0.891 2.55-2.673v-3.441c0-0.205-0.092-0.307-0.276-0.307h-3.041c-0.287 0-0.43-0.133-0.43-0.399v-1.137c0-0.287 0.143-0.43 0.43-0.43h4.946c0.41 0 0.614 0.215 0.614 0.645v5.161c0 1.434-0.399 2.55-1.198 3.348s-1.905 1.198-3.318 1.198zM118.826 24.32h-1.72c-1.393 0-2.478-0.399-3.256-1.198s-1.167-1.915-1.167-3.348v-10.691c0-0.287 0.143-0.43 0.43-0.43h1.382c0.287 0 0.43 0.143 0.43 0.43v10.598c0 1.782 0.85 2.673 2.55 2.673h1.751c0.922 0 1.628-0.246 2.12-0.737s0.737-1.188 0.737-2.089v-10.445c0-0.287 0.143-0.43 0.43-0.43h1.382c0.287 0 0.43 0.143 0.43 0.43v14.807c0 0.287-0.143 0.43-0.43 0.43h-1.382c-0.287 0-0.43-0.143-0.43-0.43v-1.198h-0.123c-0.512 1.085-1.556 1.628-3.133 1.628zM131.443 24.32h-1.382c-0.287 0-0.43-0.143-0.43-0.43v-20.736c0-0.287 0.143-0.43 0.43-0.43h1.382c0.287 0 0.43 0.143 0.43 0.43v20.736c0 0.287-0.143 0.43-0.43 0.43zM143.108 24.32h-1.812c-1.393 0-2.478-0.399-3.256-1.198s-1.167-1.915-1.167-3.348v-6.574c0-1.434 0.389-2.55 1.167-3.348s1.864-1.198 3.256-1.198h1.812c1.597 0 2.652 0.543 3.164 1.628h0.123v-7.127c0-0.287 0.133-0.43 0.399-0.43h1.413c0.266 0 0.399 0.143 0.399 0.43v20.736c0 0.287-0.133 0.43-0.399 0.43h-1.413c-0.266 0-0.399-0.143-0.399-0.43v-1.198h-0.123c-0.512 1.085-1.567 1.628-3.164 1.628zM146.395 19.528v-6.083c0-0.901-0.246-1.597-0.737-2.089s-1.198-0.737-2.12-0.737h-1.874c-1.7 0-2.55 0.891-2.55 2.673v6.39c0 1.782 0.85 2.673 2.55 2.673h1.874c0.922 0 1.628-0.246 2.12-0.737s0.737-1.188 0.737-2.089zM159.752 24.32h-1.72c-1.393 0-2.478-0.399-3.256-1.198s-1.167-1.915-1.167-3.348v-10.691c0-0.287 0.143-0.43 0.43-0.43h1.382c0.287 0 0.43 0.143 0.43 0.43v10.598c0 1.782 0.85 2.673 2.55 2.673h1.751c0.922 0 1.628-0.246 2.12-0.737s0.737-1.188 0.737-2.089v-10.445c0-0.287 0.143-0.43 0.43-0.43h1.382c0.287 0 0.43 0.143 0.43 0.43v14.807c0 0.287-0.143 0.43-0.43 0.43h-1.382c-0.287 0-0.43-0.143-0.43-0.43v-1.198h-0.123c-0.512 1.085-1.556 1.628-3.133 1.628zM172.215 24.32h-1.382c-0.287 0-0.43-0.143-0.43-0.43v-14.807c0-0.287 0.143-0.43 0.43-0.43h1.382c0.287 0 0.43 0.143 0.43 0.43v1.229h0.123c0.205-0.451 0.594-0.84 1.167-1.167s1.249-0.492 2.028-0.492h1.198c0.266 0 0.399 0.143 0.399 0.43v1.137c0 0.143-0.031 0.256-0.092 0.338-0.061 0.061-0.164 0.082-0.307 0.061h-1.659c-0.922 0-1.628 0.276-2.12 0.829s-0.737 1.311-0.737 2.273v10.168c0 0.287-0.143 0.43-0.43 0.43z"></path>
<path fill="#000" style="fill: var(--color4, #000)" d="M1.067 16l6.962-6.962 6.962 6.962-6.962 6.962-6.962-6.962z"></path>
<path fill="#000" style="fill: var(--color4, #000)" d="M9.189 24.123l6.962-6.962 6.962 6.962-6.962 6.962-6.962-6.962z"></path>
<path fill="#000" style="fill: var(--color4, #000)" d="M17.312 16l6.962-6.962 6.962 6.962-6.962 6.962-6.962-6.962z"></path>
<path fill="#000" style="fill: var(--color4, #000)" d="M9.189 7.877l6.962-6.962 6.962 6.962-6.962 6.962-6.962-6.962z"></path>
</symbol>
<symbol id="icon-man" viewBox="0 0 30 32">
<path fill="#ec3c05" style="fill: var(--color3, #ec3c05)" d="M14.968 11.001c2.867 0 5.184-2.356 5.184-5.252-0-2.899-2.317-5.243-5.184-5.243s-5.184 2.344-5.184 5.243c-0 2.896 2.317 5.252 5.184 5.252z"></path>
<path fill="#000" style="fill: var(--color4, #000)" d="M24.202 24.658c1.429-1.289 2.276-2.891 2.276-4.625 0-4.263-5.114-7.72-11.422-7.72-0.030 0-0.059 0.001-0.088 0.002s-0.059-0.002-0.089-0.002c-6.308 0-11.422 3.456-11.422 7.72 0 1.735 0.847 3.336 2.276 4.625-3.486 0.858-5.733 2.202-5.733 3.713 0 2.592 3.717 4.621 14.879 3.092 0.030 0.005 0.059 0.008 0.089 0.013 0.030-0.005 0.058-0.009 0.088-0.013 11.163 1.528 14.879-0.5 14.879-3.092-0-1.511-2.247-2.854-5.734-3.713zM23.094 20.899c-0.039-0.002-0.079-0.006-0.118-0.006-1.124 0-2.035 0.911-2.035 2.035s0.911 2.034 2.035 2.034c0.039 0 0.079-0.004 0.118-0.006v2.168l-8.126 2.831-8.125-2.831v-2.168c0.039 0.002 0.078 0.006 0.118 0.006 1.124 0 2.035-0.911 2.035-2.034s-0.911-2.035-2.035-2.035c-0.040 0-0.079 0.004-0.118 0.006v-4.603l8.125 2.647 8.126-2.647v4.603z"></path>
</symbol>
<symbol id="icon-phone" viewBox="0 0 27 32">
<path fill="#000" style="fill: var(--color4, #000)" d="M18.548 6.492v1.874c0 0.524 0.416 0.951 0.928 0.951h5.434c0.516 0 0.929-0.426 0.929-0.951v-1.874h-7.291z"></path>
<path fill="#000" style="fill: var(--color4, #000)" d="M25.832 12.563h-2.781c-0.416 0-0.744 0.34-0.744 0.758v2.083c0 0.423 0.328 0.759 0.744 0.759h2.781c0.416 0 0.744-0.336 0.744-0.759v-2.083c0-0.419-0.328-0.758-0.744-0.758z"></path>
<path fill="#ec3c05" style="fill: var(--color3, #ec3c05)" d="M25.832 23.319h-2.781c-0.416 0-0.744 0.336-0.744 0.762v2.079c0 0.419 0.328 0.763 0.744 0.763h2.781c0.416 0 0.744-0.344 0.744-0.763v-2.079c0-0.426-0.328-0.762-0.744-0.762z"></path>
<path fill="#000" style="fill: var(--color4, #000)" d="M22.87 28.404h-19.312c-0.408 0-0.744 0.336-0.744 0.754v2.087c0 0.418 0.336 0.755 0.744 0.755h19.312c0.408 0 0.736-0.337 0.736-0.755v-2.087c0-0.418-0.328-0.754-0.736-0.754z"></path>
<path fill="#ec3c05" style="fill: var(--color3, #ec3c05)" d="M4.269 26.162v-2.083c0-0.422-0.336-0.758-0.744-0.758h-2.789c-0.404 0-0.732 0.336-0.732 0.758v2.083c0 0.418 0.328 0.763 0.732 0.763h2.789c0.408 0 0.745-0.345 0.745-0.763z"></path>
<path fill="#000" style="fill: var(--color4, #000)" d="M0.736 16.162h2.789c0.408 0 0.744-0.336 0.744-0.758v-2.083c0-0.419-0.336-0.759-0.744-0.759h-2.789c-0.408 0-0.736 0.34-0.736 0.759v2.083c0 0.422 0.328 0.758 0.736 0.758z"></path>
<path fill="#000" style="fill: var(--color4, #000)" d="M1.362 9.32h5.43c0.516 0 0.932-0.427 0.932-0.951v-1.873h-7.291v1.873c0 0.524 0.412 0.951 0.929 0.951z"></path>
<path fill="#ec3c05" style="fill: var(--color3, #ec3c05)" d="M20.259 12.563h-2.789c-0.408 0-0.736 0.34-0.736 0.758v2.083c0 0.423 0.328 0.759 0.736 0.759h2.789c0.408 0 0.737-0.336 0.737-0.759v-2.083c0-0.419-0.329-0.758-0.737-0.758z"></path>
<path fill="#ec3c05" style="fill: var(--color3, #ec3c05)" d="M23.816 20.805v-2.083c0-0.414-0.336-0.759-0.744-0.759h-2.789c-0.404 0-0.732 0.344-0.732 0.759v2.083c0 0.426 0.328 0.763 0.732 0.763h2.789c0.408 0 0.744-0.336 0.744-0.763z"></path>
<path fill="#000" style="fill: var(--color4, #000)" d="M17.469 26.923h2.789c0.408 0 0.737-0.345 0.737-0.763v-2.079c0-0.427-0.328-0.763-0.737-0.763h-2.789c-0.408 0-0.736 0.336-0.736 0.763v2.079c0 0.418 0.328 0.763 0.736 0.763z"></path>
<path fill="#000" style="fill: var(--color4, #000)" d="M18.235 20.805v-2.083c0-0.414-0.328-0.759-0.736-0.759h-2.789c-0.404 0-0.74 0.344-0.74 0.759v2.083c0 0.426 0.336 0.763 0.74 0.763h2.789c0.409 0 0.736-0.336 0.736-0.763z"></path>
<path fill="#ec3c05" style="fill: var(--color3, #ec3c05)" d="M11.897 26.923h2.781c0.408 0 0.744-0.345 0.744-0.763v-2.079c0-0.427-0.336-0.763-0.744-0.763h-2.781c-0.416 0-0.744 0.336-0.744 0.763v2.079c0 0.418 0.328 0.763 0.744 0.763z"></path>
<path fill="#000" style="fill: var(--color4, #000)" d="M14.679 16.162c0.408 0 0.744-0.336 0.744-0.758v-2.083c0-0.419-0.336-0.759-0.744-0.759h-2.781c-0.416 0-0.745 0.34-0.745 0.759v2.083c0 0.422 0.328 0.758 0.745 0.758h2.781z"></path>
<path fill="#ec3c05" style="fill: var(--color3, #ec3c05)" d="M12.663 20.805v-2.083c0-0.414-0.336-0.759-0.744-0.759h-2.789c-0.404 0-0.733 0.344-0.733 0.759v2.083c0 0.426 0.328 0.763 0.733 0.763h2.789c0.408 0 0.744-0.336 0.744-0.763z"></path>
<path fill="#000" style="fill: var(--color4, #000)" d="M6.356 26.923h2.789c0.408 0 0.744-0.345 0.744-0.763v-2.079c0-0.427-0.336-0.763-0.744-0.763h-2.789c-0.408 0-0.737 0.336-0.737 0.763v2.079c0 0.418 0.328 0.763 0.737 0.763z"></path>
<path fill="#ec3c05" style="fill: var(--color3, #ec3c05)" d="M9.107 16.162c0.408 0 0.736-0.336 0.736-0.758v-2.083c0-0.419-0.328-0.759-0.736-0.759h-2.789c-0.409 0-0.737 0.34-0.737 0.759v2.083c0 0.422 0.328 0.758 0.737 0.758h2.789z"></path>
<path fill="#000" style="fill: var(--color4, #000)" d="M2.815 18.723v2.083c0 0.422 0.336 0.758 0.744 0.758h2.789c0.404 0 0.733-0.337 0.733-0.758v-2.083c0-0.419-0.328-0.762-0.733-0.762h-2.789c-0.408 0-0.744 0.344-0.744 0.762z"></path>
<path fill="#000" style="fill: var(--color4, #000)" d="M7.724 5.748c0-0.541 0.444-1.472 5.418-1.488 4.962-0.016 5.406 0.947 5.406 1.488v0.156h7.291v-0.197c0-0.972-1.709-5.707-12.697-5.707-11 0-12.709 4.735-12.709 5.707v0.197h7.291v-0.156z"></path>
</symbol>
<symbol id="icon-smartphone" viewBox="0 0 20 32">
<path fill="#757575" style="fill: var(--color1, #757575)" d="M17 0h-14c-1.654 0-3 1.346-3 3v26c0 1.654 1.346 3 3 3h14c1.654 0 3-1.346 3-3v-26c0-1.654-1.346-3-3-3zM3 2h14c0.552 0 1 0.448 1 1v21h-16v-21c0-0.552 0.448-1 1-1zM17 30h-14c-0.552 0-1-0.448-1-1v-3h16v3c0 0.552-0.448 1-1 1z"></path>
<path fill="#757575" style="fill: var(--color1, #757575)" d="M4.707 27.478c0.391 0.365 0.391 0.956 0 1.321s-1.024 0.365-1.414 0c-0.391-0.365-0.391-0.956 0-1.321s1.024-0.365 1.414 0z"></path>
</symbol>
<symbol id="icon-table" viewBox="0 0 32 32">
<path fill="#ec3c05" style="fill: var(--color3, #ec3c05)" d="M18.693 4.702l-1.84-1.577c-0.202-0.175-0.504-0.175-0.706 0l-1.9 1.629c-0.173 0.148-0.235 0.387-0.156 0.6s0.281 0.354 0.509 0.354h0.543v1.086c0 0.3 0.243 0.543 0.543 0.543h1.629c0.3 0 0.543-0.243 0.543-0.543v-1.086h0.543c0.004 0.001 0.008 0.001 0.011 0 0.3 0 0.543-0.243 0.543-0.543 0-0.196-0.105-0.368-0.26-0.464z"></path>
<path fill="#ec3c05" style="fill: var(--color3, #ec3c05)" d="M14.317 27.344l1.84 1.577c0.202 0.175 0.504 0.175 0.706 0l1.9-1.629c0.173-0.147 0.235-0.387 0.156-0.6s-0.281-0.354-0.509-0.354h-0.543v-1.086c0-0.3-0.243-0.543-0.543-0.543h-1.629c-0.3 0-0.543 0.243-0.543 0.543v1.086h-0.543c-0.004-0.001-0.008-0.001-0.011 0-0.3 0-0.543 0.243-0.543 0.543 0 0.196 0.104 0.368 0.26 0.464z"></path>
<path fill="#ec3c05" style="fill: var(--color3, #ec3c05)" d="M27.549 18.477l1.577-1.84c0.175-0.202 0.175-0.504 0-0.706l-1.629-1.9c-0.147-0.173-0.387-0.235-0.6-0.156s-0.354 0.282-0.354 0.509v0.543h-1.086c-0.3 0-0.543 0.243-0.543 0.543v1.629c0 0.3 0.243 0.543 0.543 0.543h1.086v0.543c-0.001 0.004-0.001 0.008 0 0.011 0 0.3 0.243 0.543 0.543 0.543 0.196 0 0.368-0.104 0.464-0.26z"></path>
<path fill="#ec3c05" style="fill: var(--color3, #ec3c05)" d="M4.908 14.101l-1.577 1.84c-0.175 0.202-0.175 0.504 0 0.706l1.629 1.9c0.147 0.173 0.387 0.235 0.6 0.156s0.354-0.281 0.354-0.509v-0.543h1.086c0.3 0 0.543-0.243 0.543-0.543v-1.629c0-0.3-0.243-0.543-0.543-0.543h-1.086v-0.543c0.001-0.004 0.001-0.008 0-0.011 0-0.3-0.243-0.543-0.543-0.543-0.196-0-0.368 0.104-0.464 0.26z"></path>
<path fill="#000" style="fill: var(--color4, #000)" d="M21.098 23.492l-1.058-4.229 1.065-5.856c0.054-0.295-0.142-0.577-0.437-0.631-0.294-0.057-0.577 0.142-0.631 0.437l-1.005 5.525h-3.347c-0.3 0-0.543 0.243-0.543 0.543s0.243 0.543 0.543 0.543h0.391l-0.917 3.669c-0.073 0.29 0.104 0.585 0.395 0.658 0.044 0.011 0.088 0.016 0.132 0.016 0.244 0 0.464-0.164 0.526-0.411l0.983-3.932h1.867l0.983 3.932c0.061 0.247 0.283 0.411 0.526 0.411 0.043 0 0.088-0.006 0.132-0.016 0.291-0.072 0.468-0.367 0.395-0.658z"></path>
<path fill="#000" style="fill: var(--color4, #000)" d="M18.579 18.194l0.395-2.171h-10.345v8.143h1.629v-5.972h8.322z"></path>
<path fill="#000" style="fill: var(--color4, #000)" d="M21.181 16.023l-0.395 2.171h1.414v5.972h1.629v-8.143h-2.647z"></path>
<path fill="#000" style="fill: var(--color4, #000)" d="M15.686 13.309v-4.886h-5.972v4.886h2.171v0.543c0 0.494-0.248 0.543-1.086 0.543-1.115 0-1.086 0.591-1.086 1.086h5.972c0-0.494 0-1.086-1.086-1.086-0.838 0-1.086-0.049-1.086-0.543v-0.543h2.172zM10.8 12.223v-2.714h3.8v2.714h-3.8z"></path>
</symbol>
<symbol id="icon-twitter" viewBox="0 0 32 32">
<path fill="#fff" style="fill: var(--color2, #fff)" d="M32 6.078c-1.19 0.522-2.458 0.868-3.78 1.036 1.36-0.812 2.398-2.088 2.886-3.626-1.268 0.756-2.668 1.29-4.16 1.588-1.204-1.282-2.92-2.076-4.792-2.076-3.632 0-6.556 2.948-6.556 6.562 0 0.52 0.044 1.020 0.152 1.496-5.454-0.266-10.28-2.88-13.522-6.862-0.566 0.982-0.898 2.106-0.898 3.316 0 2.272 1.17 4.286 2.914 5.452-1.054-0.020-2.088-0.326-2.964-0.808 0 0.020 0 0.046 0 0.072 0 3.188 2.274 5.836 5.256 6.446-0.534 0.146-1.116 0.216-1.72 0.216-0.42 0-0.844-0.024-1.242-0.112 0.85 2.598 3.262 4.508 6.13 4.57-2.232 1.746-5.066 2.798-8.134 2.798-0.538 0-1.054-0.024-1.57-0.090 2.906 1.874 6.35 2.944 10.064 2.944 12.072 0 18.672-10 18.672-18.668 0-0.29-0.010-0.57-0.024-0.848 1.302-0.924 2.396-2.078 3.288-3.406z"></path>
</symbol>
</defs>
</svg>
