<svg aria-hidden="true" style="position: absolute; width: 0; height: 0; overflow: hidden;" version="1.1" xmlns="http://www.w3.org/2000/svg" xmlns:xlink="http://www.w3.org/1999/xlink">
<defs>
<symbol id="icon-envelope" viewBox="0 0 43 32">
<path d="M38.667 0h-34.667c-2.206 0-4 1.794-4 4v24c0 2.206 1.794 4 4 4h34.667c2.206 0 4-1.794 4-4v-24c0-2.206-1.794-4-4-4zM38.667 2.667c0.181 0 0.353 0.038 0.511 0.103l-17.844 15.466-17.844-15.466c0.158-0.066 0.33-0.103 0.511-0.103h34.667zM38.667 29.333h-34.667c-0.736 0-1.333-0.598-1.333-1.333v-22.413l17.793 15.421c0.251 0.217 0.563 0.326 0.874 0.326s0.622-0.108 0.874-0.326l17.793-15.421v22.413c0 0.736-0.598 1.333-1.333 1.333z"></path>
</symbol>
<symbol id="icon-smartphone" viewBox="0 0 20 32">
<path d="M17 0h-14c-1.654 0-3 1.346-3 3v26c0 1.654 1.346 3 3 3h14c1.654 0 3-1.346 3-3v-26c0-1.654-1.346-3-3-3zM3 2h14c0.552 0 1 0.448 1 1v21h-16v-21c0-0.552 0.448-1 1-1zM17 30h-14c-0.552 0-1-0.448-1-1v-3h16v3c0 0.552-0.448 1-1 1z"></path>
<path d="M4.707 27.478c0.391 0.365 0.391 0.956 0 1.321s-1.024 0.365-1.414 0c-0.391-0.365-0.391-0.956 0-1.321s1.024-0.365 1.414 0z"></path>
</symbol>
<symbol id="icon-applepay" viewBox="0 0 32 32">
<path d="M5.851 11.045c-0.376 0.449-0.976 0.803-1.576 0.752-0.075-0.607 0.219-1.251 0.563-1.649 0.376-0.461 1.032-0.788 1.563-0.815 0.063 0.632-0.181 1.251-0.549 1.712h-0.001zM6.393 11.917c-0.868-0.051-1.613 0.5-2.024 0.5-0.42 0-1.051-0.475-1.739-0.461-0.893 0.013-1.724 0.524-2.18 1.34-0.939 1.629-0.244 4.044 0.661 5.371 0.444 0.657 0.976 1.377 1.676 1.352 0.661-0.025 0.924-0.436 1.724-0.436 0.807 0 1.037 0.436 1.739 0.424 0.724-0.013 1.18-0.657 1.624-1.315 0.507-0.747 0.713-1.472 0.725-1.511-0.013-0.013-1.4-0.549-1.413-2.167-0.012-1.353 1.093-1.997 1.144-2.035-0.624-0.936-1.6-1.037-1.937-1.063v0.001zM11.413 10.085v9.852h1.513v-3.368h2.093c1.912 0 3.256-1.328 3.256-3.248s-1.319-3.236-3.205-3.236h-3.657zM12.927 11.375h1.744c1.312 0 2.061 0.707 2.061 1.952s-0.749 1.96-2.068 1.96h-1.739l0.002-3.912zM21.039 20.012c0.951 0 1.832-0.485 2.232-1.257h0.031v1.183h1.4v-4.904c0-1.421-1.125-2.339-2.856-2.339-1.607 0-2.793 0.929-2.837 2.205h1.363c0.112-0.607 0.668-1.004 1.431-1.004 0.925 0 1.444 0.436 1.444 1.239v0.543l-1.888 0.115c-1.756 0.107-2.707 0.833-2.707 2.097 0 1.276 0.981 2.123 2.388 2.123l-0.001-0.001zM21.445 18.844c-0.807 0-1.32-0.392-1.32-0.992 0-0.62 0.495-0.98 1.439-1.037l1.68-0.107v0.556c0 0.923-0.773 1.58-1.799 1.58zM26.571 22.617c1.475 0 2.168-0.569 2.773-2.295l2.656-7.533h-1.537l-1.781 5.82h-0.031l-1.781-5.82h-1.581l2.561 7.173-0.137 0.436c-0.231 0.739-0.605 1.023-1.275 1.023-0.119 0-0.349-0.013-0.444-0.025v1.183c0.088 0.025 0.463 0.037 0.577 0.039v-0.001z"></path>
</symbol>
<symbol id="icon-googlepay" viewBox="0 0 32 32">
<path d="M32 13.333l-4.179 9.333h-1.291l1.551-3.267-2.748-6.067h1.36l1.987 4.653h0.027l1.931-4.653 1.362 0.001zM14.644 16.221v3.779h-1.311v-9.333h3.476c0.025-0.001 0.053-0.001 0.082-0.001 0.831 0 1.59 0.306 2.171 0.812l-0.004-0.003c0.611 0.503 0.953 1.22 0.941 1.971 0 0.009 0 0.020 0 0.030 0 0.788-0.366 1.49-0.937 1.946l-0.005 0.004c-0.607 0.531-1.357 0.795-2.249 0.795h-2.164zM14.641 11.816v3.259h2.197c0.487 0.013 0.957-0.163 1.297-0.483 0.336-0.3 0.527-0.711 0.527-1.141s-0.191-0.84-0.527-1.14c-0.321-0.307-0.757-0.496-1.237-0.496-0.021 0-0.043 0-0.064 0.001h-2.193zM22.629 13.333c0.836 0 1.496 0.232 1.98 0.696 0.483 0.464 0.724 1.101 0.724 1.909v3.857h-1.081v-0.869h-0.049c-0.468 0.716-1.091 1.073-1.867 1.073-0.664 0-1.219-0.204-1.667-0.613-0.412-0.366-0.67-0.898-0.67-1.489 0-0.015 0-0.031 0.001-0.046v0.002c0-0.647 0.236-1.161 0.707-1.544s1.1-0.573 1.887-0.575c0.671 0 1.224 0.128 1.657 0.383v-0.268c0-0.004 0-0.009 0-0.014 0-0.408-0.18-0.775-0.465-1.024l-0.002-0.001c-0.28-0.266-0.66-0.429-1.078-0.429-0.005 0-0.009 0-0.014 0h0.001c-0.632 0-1.132 0.277-1.499 0.831l-0.996-0.651c0.547-0.817 1.357-1.227 2.431-1.227v-0.001zM21.167 17.88c0 0.003 0 0.006 0 0.009 0 0.308 0.147 0.582 0.374 0.756l0.002 0.002c0.249 0.204 0.56 0.312 0.879 0.307 0.476-0.001 0.933-0.2 1.271-0.549 0.346-0.32 0.563-0.777 0.563-1.284 0-0.002 0-0.004 0-0.005-0.353-0.293-0.844-0.439-1.475-0.439-0.46 0-0.843 0.116-1.149 0.347-0.309 0.232-0.464 0.516-0.464 0.857l-0.001-0.001zM5.441 10.667c0.020 0 0.043 0 0.067 0 1.379 0 2.635 0.528 3.577 1.393l-0.004-0.003-1.552 1.523c-0.532-0.496-1.248-0.8-2.035-0.8-0.019 0-0.037 0-0.056 0.001h0.003c-1.411 0.009-2.607 0.916-3.048 2.177l-0.007 0.023c-0.108 0.304-0.171 0.656-0.171 1.021s0.063 0.717 0.178 1.043l-0.007-0.022c0.447 1.284 1.644 2.191 3.054 2.2h0.001c0.735 0 1.364-0.184 1.853-0.508 0.572-0.373 0.964-0.96 1.085-1.623h-2.939v-2.053h5.132c0.063 0.359 0.093 0.72 0.093 1.084 0 1.623-0.592 2.996-1.619 3.924-0.901 0.816-2.139 1.288-3.607 1.288-0.007 0-0.014 0-0.022 0-2.093 0-3.91-1.179-4.825-2.909l-0.014-0.030c-0.365-0.696-0.579-1.52-0.579-2.395s0.214-1.699 0.593-2.424l-0.014 0.029c0.929-1.76 2.746-2.939 4.839-2.939 0.008 0 0.016 0 0.024 0v0z"></path>
</symbol>
<symbol id="icon-npm" viewBox="0 0 32 32">
<path d="M0 9.779v10.667h8.888v1.776h7.112v-1.776h16v-10.667h-32zM8.888 18.664h-1.776v-5.333h-1.78v5.333h-3.552v-7.108h7.108v7.108zM14.221 18.664v1.781h-3.553v-8.889h7.112v7.109l-3.559-0.001zM30.223 18.664h-1.773v-5.333h-1.781v5.333h-1.78v-5.333h-1.773v5.333h-3.561v-7.108h10.669l-0.001 7.108zM14.22 13.333h1.78v3.556h-1.78v-3.556z"></path>
</symbol>
<symbol id="icon-playstation" viewBox="0 0 32 32">
<path d="M11.98 3.461v23.397l5.22 1.681v-19.623c0-0.92 0.405-1.535 1.059-1.321 0.848 0.241 1.013 1.085 1.013 2.007v7.835c3.255 1.591 5.816-0.003 5.816-4.204 0-4.316-1.501-6.233-5.917-7.769-1.743-0.597-4.971-1.581-7.188-2.003h-0.003zM18.188 25.117l8.395-3.033c0.953-0.344 1.101-0.833 0.328-1.091-0.781-0.256-2.183-0.185-3.143 0.164l-5.607 1.999v-3.18l0.32-0.113c0 0 1.601-0.56 3.884-0.82 2.261-0.24 5.047 0.039 7.249 0.881 2.464 0.801 2.721 1.963 2.101 2.763s-2.163 1.381-2.163 1.381l-11.392 4.143v-3.063l0.028-0.031zM2.411 24.8c-2.533-0.727-2.952-2.224-1.803-3.095 1.068-0.78 2.879-1.401 2.879-1.401l7.488-2.684v3.084l-5.367 1.963c-0.94 0.361-1.1 0.843-0.319 1.101 0.781 0.26 2.183 0.2 3.124-0.16l2.584-0.941v2.765c-0.161 0.039-0.341 0.059-0.521 0.097-2.584 0.441-5.327 0.261-8.049-0.639l-0.016-0.090z"></path>
</symbol>
<symbol id="icon-rails" viewBox="0 0 32 32">
<path d="M27.846 21.081v1.551h2.642c0.541 0 1.471-0.42 1.503-1.594v-0.6c0-1.003-0.776-1.594-1.503-1.594h-1.317v-0.72h2.61v-1.56h-2.505c-0.646 0-1.511 0.566-1.511 1.62v0.54c0 1.054 0.857 1.594 1.511 1.594 1.818 0.009-0.436 0 1.244 0v0.754l-2.674 0.009zM13.689 20.704c0 0 1.414-0.129 1.414-2.066s-1.713-2.117-1.713-2.117h-3.087v6.111h1.551v-1.474l1.341 1.474h2.295l-1.801-1.928zM13.091 19.452h-1.236v-1.397h1.244c0 0 0.347 0.137 0.347 0.694s-0.356 0.703-0.356 0.703h0.001zM18.933 16.564h-1.576c-1.123 0-1.503 1.080-1.503 1.594v4.474h1.576v-1.071h1.479v1.071h1.527v-4.474c0-1.303-1.115-1.594-1.503-1.594zM18.909 19.829h-1.487v-1.483c0 0 0-0.334 0.493-0.334h0.541c0.436 0 0.444 0.334 0.444 0.334v1.483h0.009zM21.156 16.564h1.64v6.069h-1.64v-6.069zM25.099 21.064v-4.5h-1.632v6.069h3.838v-1.569h-2.206zM0.566 22.632h6.384c0 0-1.22-5.906 2.82-8.297 0.881-0.454 3.685-2.151 8.275 1.449 0.145-0.129 0.283-0.231 0.283-0.231s-4.202-4.449-8.881-3.951c-2.351 0.223-5.244 2.494-6.941 5.494s-1.939 5.537-1.939 5.537l-0.001-0.001zM0.566 22.632h6.384c0 0-1.22-5.906 2.82-8.297 0.881-0.454 3.685-2.151 8.275 1.449 0.145-0.129 0.283-0.231 0.283-0.231s-4.202-4.449-8.881-3.951c-2.351 0.223-5.244 2.494-6.941 5.494s-1.939 5.537-1.939 5.537l-0.001-0.001zM0.566 22.632h6.384c0 0-1.22-5.906 2.82-8.297 0.881-0.454 3.685-2.151 8.275 1.449 0.145-0.129 0.283-0.231 0.283-0.231s-4.202-4.449-8.881-3.951c-2.36 0.223-5.253 2.494-6.949 5.494s-1.931 5.537-1.931 5.537l-0.001-0.001zM13.867 12.081l0.032-0.574c-0.073-0.043-0.275-0.146-0.784-0.3l-0.032 0.566c0.267 0.094 0.525 0.197 0.784 0.309v-0.001zM13.099 13.898l-0.032 0.54c0.267 0.009 0.533 0.043 0.8 0.103l0.032-0.531c-0.275-0.060-0.541-0.094-0.8-0.111v-0.001zM10.109 11.224h0.081l-0.162-0.523c-0.251 0-0.509 0.017-0.776 0.051l0.154 0.506c0.234-0.026 0.469-0.034 0.703-0.034zM10.497 14.378l0.186 0.591c0.234-0.12 0.469-0.223 0.703-0.3l-0.178-0.566c-0.275 0.086-0.509 0.18-0.711 0.274v0.001zM6.828 12.124l-0.364-0.591c-0.202 0.111-0.412 0.231-0.63 0.369l0.372 0.6c0.21-0.137 0.412-0.266 0.622-0.377v-0.001zM8.485 15.981l0.388 0.617c0.137-0.214 0.299-0.411 0.477-0.609l-0.364-0.583c-0.186 0.18-0.356 0.377-0.501 0.574v0.001zM7.313 18.741l0.655 0.549c0.032-0.334 0.089-0.669 0.17-1.003l-0.582-0.489c-0.105 0.317-0.178 0.634-0.242 0.943h-0.001zM3.774 14.669l-0.574-0.531c-0.21 0.214-0.412 0.429-0.598 0.643l0.622 0.566c0.17-0.231 0.356-0.463 0.549-0.677l0.001-0.001zM1.333 18.501l-0.929-0.36c-0.153 0.369-0.323 0.797-0.404 1.029l0.929 0.36c0.105-0.291 0.275-0.711 0.404-1.029zM7.192 20.918c0.016 0.454 0.057 0.823 0.097 1.080l0.97 0.369c-0.073-0.334-0.145-0.711-0.194-1.114l-0.873-0.335z"></path>
</symbol>
<symbol id="icon-ubereats" viewBox="0 0 32 32">
<path d="M-0 3.667v6.787c0 2.56 1.787 4.253 4.107 4.253 1.133 0 2.147-0.44 2.867-1.2v1.013h1.613v-10.853h-1.627v6.693c0 1.72-1.16 2.88-2.667 2.88-1.52 0-2.667-1.133-2.667-2.88v-6.693h-1.626zM9.8 3.667v10.853h1.533v-1c0.717 0.733 1.716 1.187 2.821 1.187 0.007 0 0.013 0 0.020 0h-0.001c0.008 0 0.017 0 0.027 0 2.275 0 4.12-1.845 4.12-4.12 0-0.005 0-0.009 0-0.014v0.001c0-0.004 0-0.009 0-0.013 0-2.275-1.845-4.12-4.12-4.12-0.009 0-0.019 0-0.028 0h0.001c-1.107 0-2.093 0.453-2.84 1.173v-3.947h-1.533zM23.013 6.453c-2.347 0-4.067 1.88-4.067 4.107 0 2.36 1.827 4.107 4.2 4.107 1.44 0 2.627-0.613 3.413-1.667l-1.133-0.84c-0.587 0.787-1.36 1.173-2.28 1.173-1.333 0-2.4-0.973-2.613-2.253h6.427v-0.52c0-2.347-1.667-4.107-3.947-4.107zM31.267 6.547c-0.867 0-1.493 0.4-1.88 1.040v-0.973h-1.56v7.907h1.573v-4.52c0-1.2 0.747-2 1.76-2h0.653v-1.453h-0.547l0.001-0.001zM22.973 7.813c1.173 0 2.147 0.813 2.413 2.027h-4.827c0.28-1.213 1.253-2.027 2.413-2.027h0.001zM14.067 7.84c1.48 0 2.707 1.2 2.707 2.733 0 1.52-1.227 2.76-2.707 2.76-0.004 0-0.009 0-0.014 0-1.502 0-2.72-1.218-2.72-2.72 0-0.014 0-0.028 0-0.042v0.002c0-1.533 1.227-2.733 2.733-2.733h0.001zM-0 17.28v10.853h7.627v-1.853h-5.56v-2.693h5.413v-1.8h-5.413v-2.653h5.56v-1.853l-7.627-0.001zM19.413 17.84v2.28h-1.547v1.813h1.547v4.267c0 1.080 0.76 1.933 2.133 1.933h2.187v-1.813h-1.52c-0.467 0-0.76-0.213-0.76-0.64v-3.747h2.28v-1.813h-2.28v-2.28h-2.040zM12.427 19.92c-2.387 0-4.267 1.867-4.267 4.213 0 2.333 1.88 4.2 4.267 4.2 0.96 0 1.853-0.333 2.56-0.92v0.72h2.027v-8.013h-2.027v0.72c-0.68-0.572-1.566-0.92-2.533-0.92-0.009 0-0.019 0-0.028 0h0.001zM28.053 19.92c-2.12 0-3.6 0.867-3.6 2.56 0 1.16 0.813 1.92 2.573 2.293l1.933 0.453c0.76 0.147 0.96 0.347 0.96 0.667 0 0.493-0.587 0.813-1.507 0.813-1.16 0-1.827-0.267-2.093-1.147h-2.040c0.293 1.667 1.533 2.773 4.067 2.773 2.32 0 3.653-1.107 3.653-2.653 0-1.093-0.773-1.907-2.413-2.253l-1.72-0.36c-1-0.187-1.32-0.4-1.32-0.747 0-0.48 0.48-0.773 1.373-0.773 0.96 0 1.667 0.267 1.867 1.12h2.027c-0.107-1.64-1.32-2.747-3.76-2.747v0.001zM12.6 21.68c1.347 0 2.427 1.080 2.427 2.453s-1.080 2.44-2.427 2.44c-0.004 0-0.009 0-0.013 0-1.34 0-2.427-1.086-2.427-2.427 0-0.005 0-0.009 0-0.014v0.001c0-1.373 1.107-2.453 2.44-2.453z"></path>
</symbol>
<symbol id="icon-facebook" viewBox="0 0 32 32">
<path d="M21.329 5.313h2.921v-5.088c-0.504-0.069-2.237-0.225-4.256-0.225-4.212 0-7.097 2.649-7.097 7.519v4.481h-4.648v5.688h4.648v14.312h5.699v-14.311h4.46l0.708-5.688h-5.169v-3.919c0.001-1.644 0.444-2.769 2.735-2.769z"></path>
</symbol>
<symbol id="icon-instagram" viewBox="0 0 32 32">
<path d="M31.969 9.408c-0.075-1.7-0.35-2.869-0.744-3.882-0.406-1.075-1.032-2.038-1.851-2.838-0.8-0.813-1.769-1.444-2.832-1.844-1.019-0.394-2.182-0.669-3.882-0.744-1.713-0.081-2.257-0.1-6.601-0.1s-4.888 0.019-6.595 0.094c-1.7 0.075-2.869 0.35-3.882 0.744-1.075 0.406-2.038 1.031-2.838 1.85-0.813 0.8-1.444 1.769-1.844 2.832-0.394 1.019-0.669 2.182-0.744 3.882-0.081 1.713-0.1 2.257-0.1 6.601s0.019 4.888 0.094 6.595c0.075 1.7 0.35 2.869 0.744 3.882 0.406 1.075 1.038 2.038 1.85 2.838 0.8 0.813 1.769 1.444 2.832 1.844 1.019 0.394 2.182 0.669 3.882 0.744 1.706 0.075 2.25 0.094 6.595 0.094s4.888-0.019 6.595-0.094c1.7-0.075 2.869-0.35 3.882-0.744 2.151-0.832 3.851-2.532 4.682-4.682 0.394-1.019 0.669-2.182 0.744-3.882 0.075-1.707 0.094-2.251 0.094-6.595s-0.006-4.888-0.081-6.595zM29.087 22.473c-0.069 1.563-0.331 2.407-0.55 2.969-0.538 1.394-1.644 2.5-3.038 3.038-0.563 0.219-1.413 0.481-2.969 0.55-1.688 0.075-2.194 0.094-6.464 0.094s-4.782-0.019-6.464-0.094c-1.563-0.069-2.407-0.331-2.969-0.55-0.694-0.256-1.325-0.663-1.838-1.194-0.531-0.519-0.938-1.144-1.194-1.838-0.219-0.563-0.481-1.413-0.55-2.969-0.075-1.688-0.094-2.194-0.094-6.464s0.019-4.782 0.094-6.464c0.069-1.563 0.331-2.407 0.55-2.969 0.256-0.694 0.663-1.325 1.2-1.838 0.519-0.531 1.144-0.938 1.838-1.194 0.563-0.219 1.413-0.481 2.969-0.55 1.688-0.075 2.194-0.094 6.464-0.094 4.276 0 4.782 0.019 6.464 0.094 1.563 0.069 2.407 0.331 2.969 0.55 0.694 0.256 1.325 0.662 1.838 1.194 0.531 0.519 0.938 1.144 1.194 1.838 0.219 0.563 0.481 1.413 0.55 2.969 0.075 1.688 0.094 2.194 0.094 6.464s-0.019 4.77-0.094 6.458z"></path>
<path d="M16.059 7.783c-4.538 0-8.22 3.682-8.22 8.22s3.682 8.22 8.22 8.22c4.539 0 8.22-3.682 8.22-8.22s-3.682-8.22-8.22-8.22zM16.059 21.335c-2.944 0-5.332-2.388-5.332-5.332s2.388-5.332 5.332-5.332c2.944 0 5.332 2.388 5.332 5.332s-2.388 5.332-5.332 5.332z"></path>
<path d="M26.524 7.458c0 1.060-0.859 1.919-1.919 1.919s-1.919-0.859-1.919-1.919c0-1.060 0.859-1.919 1.919-1.919s1.919 0.859 1.919 1.919z"></path>
</symbol>
<symbol id="icon-linkedin" viewBox="0 0 32 32">
<path d="M31.992 32v-0.001h0.008v-11.736c0-5.741-1.236-10.164-7.948-10.164-3.227 0-5.392 1.771-6.276 3.449h-0.093v-2.913h-6.364v21.364h6.627v-10.579c0-2.785 0.528-5.479 3.977-5.479 3.399 0 3.449 3.179 3.449 5.657v10.401h6.62z"></path>
<path d="M0.528 10.636h6.635v21.364h-6.635v-21.364z"></path>
<path d="M3.843 0c-2.121 0-3.843 1.721-3.843 3.843s1.721 3.879 3.843 3.879c2.121 0 3.843-1.757 3.843-3.879-0.001-2.121-1.723-3.843-3.843-3.843v0z"></path>
</symbol>
<symbol id="icon-twitter" viewBox="0 0 32 32">
<path d="M32 6.078c-1.19 0.522-2.458 0.868-3.78 1.036 1.36-0.812 2.398-2.088 2.886-3.626-1.268 0.756-2.668 1.29-4.16 1.588-1.204-1.282-2.92-2.076-4.792-2.076-3.632 0-6.556 2.948-6.556 6.562 0 0.52 0.044 1.020 0.152 1.496-5.454-0.266-10.28-2.88-13.522-6.862-0.566 0.982-0.898 2.106-0.898 3.316 0 2.272 1.17 4.286 2.914 5.452-1.054-0.020-2.088-0.326-2.964-0.808 0 0.020 0 0.046 0 0.072 0 3.188 2.274 5.836 5.256 6.446-0.534 0.146-1.116 0.216-1.72 0.216-0.42 0-0.844-0.024-1.242-0.112 0.85 2.598 3.262 4.508 6.13 4.57-2.232 1.746-5.066 2.798-8.134 2.798-0.538 0-1.054-0.024-1.57-0.090 2.906 1.874 6.35 2.944 10.064 2.944 12.072 0 18.672-10 18.672-18.668 0-0.29-0.010-0.57-0.024-0.848 1.302-0.924 2.396-2.078 3.288-3.406z"></path>
</symbol>
<symbol id="icon-hands" viewBox="0 0 37 32">
<path fill="#ec3c05" style="fill: var(--color3, #ec3c05)" d="M35.368 8.345c-1.997 1.181-3.072 1.663-5.142 1.554-0.779-0.009-1.191-0.346-1.962-0.273-0.717 0.027-1.084 0.3-1.801 0.545-1.102 0.346-1.702 0.655-2.858 1.018-0.734 0.209-1.2 0.218-1.962 0.482-0.654 0.282-0.34 0.055-0.797 0.59-0.591 0.664-0.448 1.182-1.003 2.317-0.689 1.491-0.61 1.69-0.215 1.872-0.26 0.763-0.322 1.273-0.26 2.099 0.071 0.627-0.188 1.063 0.475 1.563 0.905 0.682 2.804 2.281 3.288 2.308 0.725-0.027 2.84 0.055 3.915-0.699 0.242-0.154 0.314-0.309 0.107 0.273-0.044 0.072-2.678 2.154-2.965 2.144-2.029 0.066-2.418 0.162-2.456 0.209-0.233-0.092-1.787-1.973-2.74-1.282-0.368 0.228-0.538 0.446-0.682 0.855 0.126 0.263 0.717 0.682 1.263 1.027 0.788 0.509 0.86 1.044 1.648 1.236 0.958 0.217 1.98 0.072 2.588 0.154 0.234 0.064 2.347-0.563 3.664-1.281 1.218-0.636-1.675 1.227-2.383 2.145-2.132 0.682-1.531 0.709-2.544 0.918-0.94 0.218-0.896 0.164-1.541 0.372-0.663 0.164-1.209 1.081-0.582 1.563 0.376 0.318 1.55-0.127 2.705-0.164 0.511-0.008 2.598-0.981 3.072-1.236 1.183-0.645 2.051-1.536 2.75-2.045 0.967-0.681-1.093 1.882-1.962 2.954-0.251 0.346-0.367 0.418-0.68 0.863-0.519 0.682 0.143 1.718 0.474 1.554 0.385-0.145 0.636-0.927 1.057-1.181 0.215-0.118 0.788-0.973 1.326-1.554 0.394-0.454 0.681-0.654 1.057-1.127 0.636-0.8 0.77-1.409 1.326-2.263 0.34-0.446 0.582-0.581 0.895-1.127 1.658-3.181 1.174-4.608 2.76-6.88 0.484-0.673 1.030-0.837 1.801-1.236 0.716-5.299-1.657-8.261-1.639-8.27zM27.682 16.779c-0.377 1.336-0.34 1.49-1.057 1.99-0.869 0.673-0.914 0.164-2.911 1.291 0 0-0.825-0.872-2.123-1.291 0.009 0.018-0.349-1.69-1.057-2.263 1.684-1.3 1.639-2.399 1.908-2.363 0.6 0.055 1.559 0.364 3.333-0.318 1.022 1.972 2.258 1.872 1.908 2.954z"></path>
<path fill="#000" style="fill: var(--color4, #000)" d="M17.569 7.108c-0.788-0.536-0.869-1.072-1.648-1.245-0.958-0.236-1.989-0.091-2.589-0.209-0.233-0.027-2.347 0.6-3.655 1.291-1.236 0.664 1.666-1.2 2.383-2.154 2.123-0.645 1.514-0.673 2.544-0.909 0.932-0.191 0.887-0.136 1.532-0.327 0.654-0.182 1.209-1.091 0.582-1.609-0.385-0.291-1.55 0.155-2.697 0.164-0.519 0.037-2.607 1.010-3.082 1.282-1.183 0.627-2.051 1.518-2.75 1.99-0.976 0.718 1.093-1.836 1.962-2.899 0.251-0.364 0.367-0.436 0.689-0.863 0.502-0.7-0.152-1.736-0.474-1.609-0.394 0.182-0.645 0.963-1.12 1.236-0.17 0.1-0.744 0.954-1.272 1.554-0.394 0.436-0.681 0.636-1.058 1.136-0.645 0.772-0.77 1.381-1.326 2.199-0.34 0.491-0.591 0.618-0.896 1.181-1.657 3.163-1.182 4.59-2.759 6.825-0.484 0.718-1.030 0.872-1.801 1.291-0.717 5.289 1.648 8.243 1.639 8.225 1.998-1.154 3.064-1.636 5.142-1.563 0.78 0.045 1.192 0.381 1.962 0.326 0.717-0.045 1.084-0.318 1.801-0.536 1.102-0.372 1.702-0.682 2.804-1.028 0.789-0.228 1.254-0.236 2.016-0.536 0.654-0.246 0.34-0.018 0.797-0.537 0.582-0.682 0.448-1.2 0.95-2.309 0.744-1.517 0.663-1.717 0.268-1.881 0.251-0.782 0.323-1.281 0.26-2.099-0.081-0.636 0.188-1.082-0.474-1.554-0.905-0.709-2.804-2.308-3.279-2.317-0.735 0.009-2.849-0.073-3.924 0.645-0.241 0.191-0.313 0.346-0.107-0.209 0.045-0.1 2.679-2.181 2.965-2.208 1.879-0.041 2.352-0.119 2.441-0.162 0.186 0.005 1.784 1.976 2.755 1.289 0.358-0.245 0.538-0.463 0.69-0.854-0.134-0.282-0.726-0.7-1.273-1.018zM10.518 13.234c0.86-0.645 0.913-0.136 2.911-1.236 0-0.027 0.824 0.845 2.123 1.236-0.009 0.009 0.349 1.717 1.057 2.308-1.684 1.282-1.639 2.381-1.908 2.363-0.601-0.073-1.559-0.382-3.332 0.273-1.030-1.945-2.258-1.836-1.908-2.963 0.376-1.291 0.332-1.454 1.058-1.981z"></path>
</symbol>
<symbol id="icon-man" viewBox="0 0 30 32">
<path fill="#ec3c05" style="fill: var(--color3, #ec3c05)" d="M14.968 11.001c2.867 0 5.184-2.356 5.184-5.252-0-2.899-2.317-5.243-5.184-5.243s-5.184 2.344-5.184 5.243c-0 2.896 2.317 5.252 5.184 5.252z"></path>
<path fill="#000" style="fill: var(--color4, #000)" d="M24.202 24.658c1.429-1.289 2.276-2.891 2.276-4.625 0-4.263-5.114-7.72-11.422-7.72-0.030 0-0.059 0.001-0.088 0.002s-0.059-0.002-0.089-0.002c-6.308 0-11.422 3.456-11.422 7.72 0 1.735 0.847 3.336 2.276 4.625-3.486 0.858-5.733 2.202-5.733 3.713 0 2.592 3.717 4.621 14.879 3.092 0.030 0.005 0.059 0.008 0.089 0.013 0.030-0.005 0.058-0.009 0.088-0.013 11.163 1.528 14.879-0.5 14.879-3.092-0-1.511-2.247-2.854-5.734-3.713zM23.094 20.899c-0.039-0.002-0.079-0.006-0.118-0.006-1.124 0-2.035 0.911-2.035 2.035s0.911 2.034 2.035 2.034c0.039 0 0.079-0.004 0.118-0.006v2.168l-8.126 2.831-8.125-2.831v-2.168c0.039 0.002 0.078 0.006 0.118 0.006 1.124 0 2.035-0.911 2.035-2.034s-0.911-2.035-2.035-2.035c-0.040 0-0.079 0.004-0.118 0.006v-4.603l8.125 2.647 8.126-2.647v4.603z"></path>
</symbol>
<symbol id="icon-phone" viewBox="0 0 27 32">
<path fill="#000" style="fill: var(--color4, #000)" d="M18.548 6.492v1.874c0 0.524 0.416 0.951 0.928 0.951h5.434c0.516 0 0.929-0.426 0.929-0.951v-1.874h-7.291z"></path>
<path fill="#000" style="fill: var(--color4, #000)" d="M25.832 12.563h-2.781c-0.416 0-0.744 0.34-0.744 0.758v2.083c0 0.423 0.328 0.759 0.744 0.759h2.781c0.416 0 0.744-0.336 0.744-0.759v-2.083c0-0.419-0.328-0.758-0.744-0.758z"></path>
<path fill="#ec3c05" style="fill: var(--color3, #ec3c05)" d="M25.832 23.319h-2.781c-0.416 0-0.744 0.336-0.744 0.762v2.079c0 0.419 0.328 0.763 0.744 0.763h2.781c0.416 0 0.744-0.344 0.744-0.763v-2.079c0-0.426-0.328-0.762-0.744-0.762z"></path>
<path fill="#000" style="fill: var(--color4, #000)" d="M22.87 28.404h-19.312c-0.408 0-0.744 0.336-0.744 0.754v2.087c0 0.418 0.336 0.755 0.744 0.755h19.312c0.408 0 0.736-0.337 0.736-0.755v-2.087c0-0.418-0.328-0.754-0.736-0.754z"></path>
<path fill="#ec3c05" style="fill: var(--color3, #ec3c05)" d="M4.269 26.162v-2.083c0-0.422-0.336-0.758-0.744-0.758h-2.789c-0.404 0-0.732 0.336-0.732 0.758v2.083c0 0.418 0.328 0.763 0.732 0.763h2.789c0.408 0 0.745-0.345 0.745-0.763z"></path>
<path fill="#000" style="fill: var(--color4, #000)" d="M0.736 16.162h2.789c0.408 0 0.744-0.336 0.744-0.758v-2.083c0-0.419-0.336-0.759-0.744-0.759h-2.789c-0.408 0-0.736 0.34-0.736 0.759v2.083c0 0.422 0.328 0.758 0.736 0.758z"></path>
<path fill="#000" style="fill: var(--color4, #000)" d="M1.362 9.32h5.43c0.516 0 0.932-0.427 0.932-0.951v-1.873h-7.291v1.873c0 0.524 0.412 0.951 0.929 0.951z"></path>
<path fill="#ec3c05" style="fill: var(--color3, #ec3c05)" d="M20.259 12.563h-2.789c-0.408 0-0.736 0.34-0.736 0.758v2.083c0 0.423 0.328 0.759 0.736 0.759h2.789c0.408 0 0.737-0.336 0.737-0.759v-2.083c0-0.419-0.329-0.758-0.737-0.758z"></path>
<path fill="#ec3c05" style="fill: var(--color3, #ec3c05)" d="M23.816 20.805v-2.083c0-0.414-0.336-0.759-0.744-0.759h-2.789c-0.404 0-0.732 0.344-0.732 0.759v2.083c0 0.426 0.328 0.763 0.732 0.763h2.789c0.408 0 0.744-0.336 0.744-0.763z"></path>
<path fill="#000" style="fill: var(--color4, #000)" d="M17.469 26.923h2.789c0.408 0 0.737-0.345 0.737-0.763v-2.079c0-0.427-0.328-0.763-0.737-0.763h-2.789c-0.408 0-0.736 0.336-0.736 0.763v2.079c0 0.418 0.328 0.763 0.736 0.763z"></path>
<path fill="#000" style="fill: var(--color4, #000)" d="M18.235 20.805v-2.083c0-0.414-0.328-0.759-0.736-0.759h-2.789c-0.404 0-0.74 0.344-0.74 0.759v2.083c0 0.426 0.336 0.763 0.74 0.763h2.789c0.409 0 0.736-0.336 0.736-0.763z"></path>
<path fill="#ec3c05" style="fill: var(--color3, #ec3c05)" d="M11.897 26.923h2.781c0.408 0 0.744-0.345 0.744-0.763v-2.079c0-0.427-0.336-0.763-0.744-0.763h-2.781c-0.416 0-0.744 0.336-0.744 0.763v2.079c0 0.418 0.328 0.763 0.744 0.763z"></path>
<path fill="#000" style="fill: var(--color4, #000)" d="M14.679 16.162c0.408 0 0.744-0.336 0.744-0.758v-2.083c0-0.419-0.336-0.759-0.744-0.759h-2.781c-0.416 0-0.745 0.34-0.745 0.759v2.083c0 0.422 0.328 0.758 0.745 0.758h2.781z"></path>
<path fill="#ec3c05" style="fill: var(--color3, #ec3c05)" d="M12.663 20.805v-2.083c0-0.414-0.336-0.759-0.744-0.759h-2.789c-0.404 0-0.733 0.344-0.733 0.759v2.083c0 0.426 0.328 0.763 0.733 0.763h2.789c0.408 0 0.744-0.336 0.744-0.763z"></path>
<path fill="#000" style="fill: var(--color4, #000)" d="M6.356 26.923h2.789c0.408 0 0.744-0.345 0.744-0.763v-2.079c0-0.427-0.336-0.763-0.744-0.763h-2.789c-0.408 0-0.737 0.336-0.737 0.763v2.079c0 0.418 0.328 0.763 0.737 0.763z"></path>
<path fill="#ec3c05" style="fill: var(--color3, #ec3c05)" d="M9.107 16.162c0.408 0 0.736-0.336 0.736-0.758v-2.083c0-0.419-0.328-0.759-0.736-0.759h-2.789c-0.409 0-0.737 0.34-0.737 0.759v2.083c0 0.422 0.328 0.758 0.737 0.758h2.789z"></path>
<path fill="#000" style="fill: var(--color4, #000)" d="M2.815 18.723v2.083c0 0.422 0.336 0.758 0.744 0.758h2.789c0.404 0 0.733-0.337 0.733-0.758v-2.083c0-0.419-0.328-0.762-0.733-0.762h-2.789c-0.408 0-0.744 0.344-0.744 0.762z"></path>
<path fill="#000" style="fill: var(--color4, #000)" d="M7.724 5.748c0-0.541 0.444-1.472 5.418-1.488 4.962-0.016 5.406 0.947 5.406 1.488v0.156h7.291v-0.197c0-0.972-1.709-5.707-12.697-5.707-11 0-12.709 4.735-12.709 5.707v0.197h7.291v-0.156z"></path>
</symbol>
<symbol id="icon-table" viewBox="0 0 32 32">
<path fill="#ec3c05" style="fill: var(--color3, #ec3c05)" d="M18.693 4.702l-1.84-1.577c-0.202-0.175-0.504-0.175-0.706 0l-1.9 1.629c-0.173 0.148-0.235 0.387-0.156 0.6s0.281 0.354 0.509 0.354h0.543v1.086c0 0.3 0.243 0.543 0.543 0.543h1.629c0.3 0 0.543-0.243 0.543-0.543v-1.086h0.543c0.004 0.001 0.008 0.001 0.011 0 0.3 0 0.543-0.243 0.543-0.543 0-0.196-0.105-0.368-0.26-0.464z"></path>
<path fill="#ec3c05" style="fill: var(--color3, #ec3c05)" d="M14.317 27.344l1.84 1.577c0.202 0.175 0.504 0.175 0.706 0l1.9-1.629c0.173-0.147 0.235-0.387 0.156-0.6s-0.281-0.354-0.509-0.354h-0.543v-1.086c0-0.3-0.243-0.543-0.543-0.543h-1.629c-0.3 0-0.543 0.243-0.543 0.543v1.086h-0.543c-0.004-0.001-0.008-0.001-0.011 0-0.3 0-0.543 0.243-0.543 0.543 0 0.196 0.104 0.368 0.26 0.464z"></path>
<path fill="#ec3c05" style="fill: var(--color3, #ec3c05)" d="M27.549 18.477l1.577-1.84c0.175-0.202 0.175-0.504 0-0.706l-1.629-1.9c-0.147-0.173-0.387-0.235-0.6-0.156s-0.354 0.282-0.354 0.509v0.543h-1.086c-0.3 0-0.543 0.243-0.543 0.543v1.629c0 0.3 0.243 0.543 0.543 0.543h1.086v0.543c-0.001 0.004-0.001 0.008 0 0.011 0 0.3 0.243 0.543 0.543 0.543 0.196 0 0.368-0.104 0.464-0.26z"></path>
<path fill="#ec3c05" style="fill: var(--color3, #ec3c05)" d="M4.908 14.101l-1.577 1.84c-0.175 0.202-0.175 0.504 0 0.706l1.629 1.9c0.147 0.173 0.387 0.235 0.6 0.156s0.354-0.281 0.354-0.509v-0.543h1.086c0.3 0 0.543-0.243 0.543-0.543v-1.629c0-0.3-0.243-0.543-0.543-0.543h-1.086v-0.543c0.001-0.004 0.001-0.008 0-0.011 0-0.3-0.243-0.543-0.543-0.543-0.196-0-0.368 0.104-0.464 0.26z"></path>
<path fill="#000" style="fill: var(--color4, #000)" d="M21.098 23.492l-1.058-4.229 1.065-5.856c0.054-0.295-0.142-0.577-0.437-0.631-0.294-0.057-0.577 0.142-0.631 0.437l-1.005 5.525h-3.347c-0.3 0-0.543 0.243-0.543 0.543s0.243 0.543 0.543 0.543h0.391l-0.917 3.669c-0.073 0.29 0.104 0.585 0.395 0.658 0.044 0.011 0.088 0.016 0.132 0.016 0.244 0 0.464-0.164 0.526-0.411l0.983-3.932h1.867l0.983 3.932c0.061 0.247 0.283 0.411 0.526 0.411 0.043 0 0.088-0.006 0.132-0.016 0.291-0.072 0.468-0.367 0.395-0.658z"></path>
<path fill="#000" style="fill: var(--color4, #000)" d="M18.579 18.194l0.395-2.171h-10.345v8.143h1.629v-5.972h8.322z"></path>
<path fill="#000" style="fill: var(--color4, #000)" d="M21.181 16.023l-0.395 2.171h1.414v5.972h1.629v-8.143h-2.647z"></path>
<path fill="#000" style="fill: var(--color4, #000)" d="M15.686 13.309v-4.886h-5.972v4.886h2.171v0.543c0 0.494-0.248 0.543-1.086 0.543-1.115 0-1.086 0.591-1.086 1.086h5.972c0-0.494 0-1.086-1.086-1.086-0.838 0-1.086-0.049-1.086-0.543v-0.543h2.172zM10.8 12.223v-2.714h3.8v2.714h-3.8z"></path>
</symbol>
</defs>
</svg>
