<svg width="65" height="56" viewBox="0 0 65 56" fill="none" xmlns="http://www.w3.org/2000/svg">
<g clip-path="url(#clip0_501234_549)">
<path d="M61.8949 14.603C58.3998 16.6703 56.5187 17.5137 52.8963 17.3232C51.5326 17.3073 50.8117 16.7185 49.4636 16.8457C48.2091 16.8932 47.5669 17.3706 46.3118 17.7999C44.3839 18.4046 43.3328 18.9454 41.3107 19.5817C40.0256 19.9477 39.2112 19.9635 37.878 20.4245C36.734 20.9177 37.2826 20.5201 36.4831 21.4578C35.4483 22.619 35.6992 23.5258 34.7275 25.5133C33.5211 28.122 33.6608 28.4715 34.3511 28.79C33.8968 30.1253 33.7876 31.0169 33.8968 32.4637C34.0216 33.5609 33.5679 34.3239 34.7275 35.1983C36.3115 36.3919 39.635 39.1905 40.4819 39.2373C41.7514 39.1905 45.4518 39.3336 47.3323 38.0141C47.7561 37.7437 47.8815 37.4733 47.5201 38.4921C47.4428 38.6188 42.833 42.2608 42.3318 42.2443C38.7809 42.3604 38.0997 42.5285 38.0347 42.6109C37.6265 42.4507 34.9069 39.1575 33.2396 40.3676C32.5961 40.7659 32.2984 41.1477 32.0469 41.8638C32.2666 42.3247 33.302 43.0574 34.2569 43.6614C35.6368 44.553 35.7616 45.4893 37.1416 45.825C38.8186 46.2055 40.6061 45.9509 41.6714 46.094C42.0803 46.2055 45.7794 45.1082 48.0837 43.852C50.2157 42.7389 45.1522 45.9991 43.9133 47.6055C40.1823 48.799 41.2333 48.8465 39.4608 49.2125C37.815 49.5936 37.893 49.4987 36.7646 49.864C35.6043 50.1502 34.6482 51.7566 35.7467 52.5986C36.4051 53.1559 38.4591 52.3764 40.4806 52.3118C41.3744 52.2973 45.0267 50.5946 45.8574 50.1495C47.9277 49.0199 49.4467 47.4617 50.67 46.5702C52.3626 45.3786 48.7577 49.8633 47.2367 51.7401C46.798 52.3454 46.5945 52.4714 46.0459 53.2508C45.1372 54.445 46.2962 56.2578 46.876 55.971C47.55 55.7171 47.9894 54.3494 48.7259 53.9037C49.1029 53.6966 50.1058 52.201 51.0464 51.1835C51.736 50.3889 52.2378 50.0387 52.8963 49.2118C54.0097 47.8119 54.2444 46.7469 55.2168 45.2513C55.8122 44.4712 56.2347 44.2338 56.7833 43.2796C59.6842 37.7134 58.8373 35.2154 61.6128 31.2398C62.4597 30.0627 63.4152 29.7758 64.764 29.0762C66.0178 19.8033 61.8637 14.6189 61.8949 14.603ZM48.4438 29.363C47.7847 31.7007 47.8484 31.9711 46.5939 32.8455C45.0729 34.0225 44.9942 33.1317 41.4992 35.104C41.4992 35.104 40.0562 33.5774 37.7831 32.8455C37.7981 32.8778 37.1715 29.8873 35.9332 28.8849C38.8797 26.6106 38.801 24.687 39.2723 24.7503C40.3227 24.8459 42.001 25.3867 45.1047 24.1938C46.8929 27.6452 49.0561 27.4698 48.4438 29.363Z" fill="#EC3C05"/>
<path d="M30.745 12.4387C29.3657 11.5003 29.2246 10.5619 27.8603 10.2599C26.1833 9.84645 24.3802 10.101 23.3291 9.89393C22.9216 9.84645 19.2224 10.9437 16.9331 12.1525C14.7699 13.3137 19.849 10.0529 21.1035 8.38318C24.8189 7.25424 23.7529 7.2061 25.556 6.79264C27.1862 6.45896 27.1076 6.55392 28.2366 6.22025C29.3813 5.90241 30.353 4.31121 29.2552 3.40515C28.5811 2.89607 26.5434 3.67552 24.5362 3.69134C23.6275 3.75597 19.9738 5.45795 19.1431 5.93472C17.0735 7.03201 15.5532 8.5909 14.3305 9.41782C12.6217 10.6747 16.2428 6.20508 17.7638 4.34418C18.2026 3.70783 18.4067 3.58056 18.9702 2.83343C19.849 1.60887 18.7037 -0.204562 18.1402 0.0183248C17.4499 0.336169 17.0118 1.70382 16.1798 2.18125C15.8821 2.35666 14.8785 3.85158 13.9542 4.90139C13.2639 5.66501 12.7621 6.01451 12.1036 6.88957C10.9752 8.2414 10.7555 9.30704 9.78376 10.7387C9.18836 11.5972 8.74896 11.8201 8.21596 12.806C5.31631 18.3406 6.14701 20.8378 3.38776 24.7502C2.54146 26.0064 1.58531 26.2768 0.236563 27.0087C-1.01794 36.2651 3.12126 41.4344 3.10501 41.4028C6.60136 39.3836 8.46686 38.5395 12.1043 38.6681C13.4686 38.7472 14.1895 39.3354 15.5376 39.2392C16.7921 39.1607 17.4343 38.6826 18.6888 38.3015C20.6173 37.6499 21.6671 37.1079 23.5956 36.5032C24.9756 36.1049 25.7907 36.0897 27.1238 35.5655C28.2678 35.1355 27.7192 35.5332 28.5187 34.6265C29.5373 33.4336 29.302 32.5268 30.1808 30.5861C31.4821 27.9306 31.3404 27.5805 30.6507 27.2943C31.0901 25.9266 31.2156 25.0522 31.1051 23.6206C30.964 22.5075 31.4346 21.728 30.275 20.9005C28.691 19.6601 25.3675 16.8608 24.5368 16.845C23.2511 16.8608 19.5513 16.7177 17.6702 17.9739C17.2477 18.3076 17.1216 18.5786 17.4824 17.6079C17.561 17.4325 22.1702 13.7905 22.6713 13.743C25.9597 13.6718 26.7871 13.5353 26.9438 13.4601C27.2688 13.4687 30.0664 16.9175 31.7648 15.7154C32.3921 15.2861 32.7054 14.9043 32.9719 14.2204C32.7366 13.7272 31.7018 12.9959 30.745 12.4387ZM18.4067 23.1597C19.9114 22.0307 20.005 22.9209 23.5014 20.9967C23.5014 20.9486 24.9437 22.4758 27.2174 23.1597C27.2018 23.1755 27.8284 26.1653 29.0673 27.1993C26.1196 29.442 26.1982 31.3669 25.7276 31.3346C24.6766 31.2073 22.9996 30.6659 19.8958 31.8127C18.0927 28.4087 15.9451 28.5993 16.5561 26.6269C17.2146 24.3684 17.1366 24.0822 18.4067 23.1597Z" fill="black"/>
</g>
<defs>
<clipPath id="clip0_501234_549">
<rect width="65" height="56" fill="white"/>
</clipPath>
</defs>
</svg>
