<svg width="49" height="59" viewBox="0 0 49 59" fill="none" xmlns="http://www.w3.org/2000/svg">
<g clip-path="url(#clip0_501234_559)">
<path d="M34.198 11.9705V15.425C34.198 16.392 34.9653 17.1779 35.9089 17.1779H45.928C46.8798 17.1779 47.6401 16.392 47.6401 15.425V11.9705H34.198Z" fill="black"/>
<path d="M47.6272 23.1622H42.4998C41.7331 23.1622 41.1277 23.7888 41.1277 24.5605V28.4003C41.1277 29.1796 41.7331 29.7991 42.4998 29.7991H47.6272C48.3945 29.7991 48.9993 29.1796 48.9993 28.4003V24.5605C48.9999 23.7888 48.3951 23.1622 47.6272 23.1622Z" fill="black"/>
<path d="M47.6272 42.9951H42.4998C41.7331 42.9951 41.1277 43.6151 41.1277 44.4004V48.2337C41.1277 49.0054 41.7331 49.6402 42.4998 49.6402H47.6272C48.3945 49.6402 48.9993 49.0054 48.9993 48.2337V44.4004C48.9999 43.6146 48.3951 42.9951 47.6272 42.9951Z" fill="#EC3C05"/>
<path d="M42.167 52.3696H6.5613C5.80918 52.3696 5.18921 52.9897 5.18921 53.7596V57.6076C5.18921 58.3781 5.80918 58.9988 6.5613 58.9988H42.167C42.9191 58.9988 43.5245 58.3775 43.5245 57.6076V53.7596C43.5245 52.9897 42.9191 52.3696 42.167 52.3696Z" fill="black"/>
<path d="M7.87108 48.2354V44.3951C7.87108 43.6163 7.25169 42.9968 6.49899 42.9968H1.35583C0.610697 42.9968 0.00585938 43.6163 0.00585938 44.3951V48.2354C0.00585938 49.006 0.611279 49.6414 1.35583 49.6414H6.4984C7.2511 49.6414 7.87108 49.006 7.87108 48.2354Z" fill="#EC3C05"/>
<path d="M1.35754 29.7979H6.50011C7.25223 29.7979 7.8722 29.1778 7.8722 28.3996V24.5599C7.8722 23.7876 7.25281 23.161 6.50011 23.161H1.35754C0.60542 23.1616 0 23.7882 0 24.5605V28.4002C0 29.1784 0.60542 29.7979 1.35754 29.7979Z" fill="black"/>
<path d="M2.51137 17.1831H12.5229C13.4741 17.1831 14.2414 16.3961 14.2414 15.4291V11.9752H0.799316V15.4291C0.799316 16.3961 1.559 17.1831 2.51137 17.1831Z" fill="black"/>
<path d="M37.3533 23.1622H32.2113C31.4586 23.1622 30.8538 23.7888 30.8538 24.5605V28.4003C30.8538 29.1796 31.4586 29.7991 32.2113 29.7991H37.3533C38.1054 29.7991 38.7114 29.1796 38.7114 28.4003V24.5605C38.7114 23.7888 38.1054 23.1622 37.3533 23.1622Z" fill="#EC3C05"/>
<path d="M43.9104 38.3588V34.5185C43.9104 33.7545 43.2905 33.1196 42.5383 33.1196H37.3964C36.6506 33.1196 36.0464 33.7545 36.0464 34.5185V38.3588C36.0464 39.1447 36.6506 39.7648 37.3964 39.7648H42.5383C43.2899 39.7648 43.9104 39.1447 43.9104 38.3588Z" fill="#EC3C05"/>
<path d="M32.209 49.639H37.3516C38.1043 49.639 38.7097 49.003 38.7097 48.2325V44.3998C38.7097 43.6134 38.1043 42.9933 37.3516 42.9933H32.209C31.4569 42.9933 30.8521 43.6134 30.8521 44.3998V48.2325C30.8521 49.003 31.4569 49.639 32.209 49.639Z" fill="black"/>
<path d="M33.6212 38.3588V34.5185C33.6212 33.7545 33.017 33.1196 32.2637 33.1196H27.1217C26.3766 33.1196 25.7566 33.7545 25.7566 34.5185V38.3588C25.7566 39.1447 26.376 39.7648 27.1217 39.7648H32.2637C33.017 39.7648 33.6212 39.1447 33.6212 38.3588Z" fill="black"/>
<path d="M21.9348 49.639H27.0629C27.815 49.639 28.4344 49.003 28.4344 48.2325V44.3998C28.4344 43.6134 27.815 42.9933 27.0629 42.9933H21.9348C21.1682 42.9933 20.5627 43.6134 20.5627 44.3998V48.2325C20.5627 49.003 21.1682 49.639 21.9348 49.639Z" fill="#EC3C05"/>
<path d="M27.0651 29.7979C27.8178 29.7979 28.4366 29.1778 28.4366 28.3996V24.5599C28.4366 23.7876 27.8178 23.161 27.0651 23.161H21.9376C21.1698 23.161 20.5649 23.7876 20.5649 24.5599V28.3996C20.5649 29.1778 21.1698 29.7979 21.9376 29.7979H27.0651Z" fill="black"/>
<path d="M23.3471 38.3588V34.5185C23.3471 33.7545 22.7277 33.1196 21.975 33.1196H16.833C16.0873 33.1196 15.4824 33.7545 15.4824 34.5185V38.3588C15.4824 39.1447 16.0878 39.7648 16.833 39.7648H21.975C22.7277 39.7648 23.3471 39.1447 23.3471 38.3588Z" fill="#EC3C05"/>
<path d="M11.7185 49.639H16.8605C17.6126 49.639 18.2326 49.003 18.2326 48.2325V44.3998C18.2326 43.6134 17.6126 42.9933 16.8605 42.9933H11.7185C10.9658 42.9933 10.3604 43.6134 10.3604 44.3998V48.2325C10.3609 49.003 10.9658 49.639 11.7185 49.639Z" fill="black"/>
<path d="M16.7904 29.7979C17.5425 29.7979 18.1479 29.1778 18.1479 28.3996V24.5599C18.1479 23.7876 17.5425 23.161 16.7904 23.161H11.6484C10.8951 23.161 10.2903 23.7876 10.2903 24.5599V28.3996C10.2903 29.1778 10.8951 29.7979 11.6484 29.7979H16.7904Z" fill="#EC3C05"/>
<path d="M5.19092 34.5197V38.3606C5.19092 39.1382 5.81089 39.7589 6.56359 39.7589H11.705C12.4507 39.7589 13.0556 39.1382 13.0556 38.3606V34.5197C13.0556 33.748 12.4507 33.1143 11.705 33.1143H6.56359C5.81089 33.1143 5.19092 33.7486 5.19092 34.5197Z" fill="black"/>
<path d="M14.2403 10.597C14.2403 9.59989 15.0587 7.88358 24.2291 7.85408C33.3779 7.82399 34.197 9.59989 34.197 10.597V10.8849H47.6396V10.5215C47.6396 8.72964 44.4891 0 24.2291 0C3.94812 0 0.797607 8.72964 0.797607 10.5215V10.8849H14.2403V10.597Z" fill="black"/>
</g>
<defs>
<clipPath id="clip0_501234_559">
<rect width="49" height="59" fill="white"/>
</clipPath>
</defs>
</svg>
